<svg xmlns="http://www.w3.org/2000/svg" viewBox="0 0 512 512">
  <defs>
    <linearGradient id="bg" x1="0%" x2="100%" y1="0%" y2="100%">
      <stop offset="0%" stop-color="#006039"/>
      <stop offset="100%" stop-color="#0b7a4b"/>
    </linearGradient>
  </defs>
  <rect width="512" height="512" rx="136" fill="url(#bg)"/>
  <circle cx="256" cy="220" r="122" fill="#fff" opacity="0.14"/>
  <path fill="#fff" d="M256 110c-94.7 0-171 65.6-171 147.8 0 39.2 17.7 75.4 47.4 102.9-5.5 24.2-18.5 47-37.1 65.8-5.3 5.3-6.8 13.2-3.8 20.1 3 7 9.9 11.4 17.4 11.1 44.9-2.1 84.1-16.6 114.1-41.4 10.9 1.8 22 2.7 33 2.7 94.4 0 171-65.5 171-147.8S350.4 110 256 110Zm-57 160.5c13.7 0 24.5 10.7 24.5 24s-10.8 24-24.5 24-24.5-10.7-24.5-24 10.8-24 24.5-24Zm57 0c13.7 0 24.5 10.7 24.5 24s-10.8 24-24.5 24-24.5-10.7-24.5-24 10.8-24 24.5-24Zm57 0c13.7 0 24.5 10.7 24.5 24s-10.8 24-24.5 24-24.5-10.7-24.5-24 10.8-24 24.5-24Z"/>
</svg>
