<?xml version="1.0" encoding="UTF-8"?>
<svg id="Layer_2" data-name="Layer 2" xmlns="http://www.w3.org/2000/svg" xmlns:xlink="http://www.w3.org/1999/xlink" viewBox="0 0 925 924">
  <defs>
    <style>
      .cls-1 {
        fill: #fff;
      }

      .cls-2 {
        opacity: .8;
      }

      .cls-3 {
        fill: url(#linear-gradient);
        filter: url(#drop-shadow-1);
      }
    </style>
    <linearGradient id="linear-gradient" x1="65.56" y1="452" x2="839.11" y2="452" gradientUnits="userSpaceOnUse">
      <stop offset="0" stop-color="#308ce0"/>
      <stop offset="1" stop-color="#3277b8"/>
    </linearGradient>
    <filter id="drop-shadow-1" x="0" y="0" width="925" height="924" filterUnits="userSpaceOnUse">
      <feOffset dx="10" dy="10"/>
      <feGaussianBlur result="blur" stdDeviation="25"/>
      <feFlood flood-color="#000" flood-opacity=".15"/>
      <feComposite in2="blur" operator="in"/>
      <feComposite in="SourceGraphic"/>
    </filter>
  </defs>
  <g id="Layer_1-2" data-name="Layer 1">
    <g>
      <rect class="cls-3" x="65.56" y="65.22" width="773.56" height="773.56" rx="115.11" ry="115.11"/>
      <g>
        <path class="cls-1" d="M548.77,178.68c-177.24-79.24-332.8,69.82-347.94,241.79,2.32-.53,4.72-.83,7.2-.83,2.8,0,5.51.39,8.1,1.06,9.14-105.01,71.49-213.14,178.42-238.73,81.94-20.27,161.3,23.03,201.78,93.81,80.35,135.1,55.41,376.81-106.43,439.32-78.46,29.87-165.97-13.42-214.12-77.4-34.21-44.29-53.66-98.84-59.17-154.52-2.74.75-5.6,1.19-8.58,1.19-2.41,0-4.75-.28-7-.78,8.44,94.06,55.5,187.43,139.36,234.97,63.24,35.53,142.93,37.72,209.63,8.02,105.01-46.42,167.91-162.32,166.62-275.08,1.15-112.63-63.94-226.46-167.87-272.81Z"/>
        <circle class="cls-1" cx="208.03" cy="452" r="20.03"/>
        <g class="cls-2">
          <path class="cls-1" d="M294.1,303.37c-46.11,79.15-50.59,180.62-14.38,264.37,12.32,27.74,29.57,53.66,52.88,74.18-52.65-35.21-79.68-99.55-85.8-161.07-5.61-61.99,8.22-128.02,47.29-177.48h0Z"/>
        </g>
      </g>
    </g>
  </g>
</svg>